<svg xmlns="http://www.w3.org/2000/svg" width="431.094" height="431.094" viewBox="0 0 431.094 431.094">
  <g id="Group_2289" data-name="Group 2289" transform="translate(-20.242 -4.867)">
    <g id="Group_2284" data-name="Group 2284" transform="translate(20.242 4.867)" opacity="0.4" style="mix-blend-mode: multiply;isolation: isolate">
      <circle id="Ellipse_34" data-name="Ellipse 34" cx="127.819" cy="127.819" r="127.819" transform="translate(45.491 129.964)" fill="#fff"/>
      <circle id="Ellipse_35" data-name="Ellipse 35" cx="127.82" cy="127.82" r="127.82" transform="translate(40.702 375.405) rotate(-86.639)" fill="#fafdf7"/>
      <circle id="Ellipse_36" data-name="Ellipse 36" cx="127.819" cy="127.819" r="127.819" transform="translate(50.46 124.995)" fill="#f5fcef"/>
      <circle id="Ellipse_37" data-name="Ellipse 37" cx="127.819" cy="127.819" r="127.819" transform="translate(0 250.33) rotate(-45)" fill="#effae7"/>
      <circle id="Ellipse_38" data-name="Ellipse 38" cx="127.819" cy="127.819" r="127.819" transform="translate(2.484 247.845) rotate(-45)" fill="#eaf8df"/>
      <circle id="Ellipse_39" data-name="Ellipse 39" cx="127.819" cy="127.819" r="127.819" transform="matrix(0.522, -0.853, 0.853, 0.522, 9.992, 287.679)" fill="#e5f6d7"/>
      <circle id="Ellipse_40" data-name="Ellipse 40" cx="127.819" cy="127.819" r="127.819" transform="translate(7.453 242.876) rotate(-45)" fill="#e0f5d0"/>
      <circle id="Ellipse_41" data-name="Ellipse 41" cx="127.819" cy="127.819" r="127.819" transform="translate(9.938 240.392) rotate(-45)" fill="#daf3c8"/>
      <circle id="Ellipse_42" data-name="Ellipse 42" cx="127.819" cy="127.819" r="127.819" transform="translate(39.869 333.664) rotate(-76.987)" fill="#d5f1c0"/>
      <circle id="Ellipse_43" data-name="Ellipse 43" cx="127.819" cy="127.819" r="127.819" transform="translate(42.353 331.179) rotate(-76.987)" fill="#d0efb8"/>
      <circle id="Ellipse_44" data-name="Ellipse 44" cx="127.819" cy="127.819" r="127.819" transform="matrix(0.212, -0.977, 0.977, 0.212, 46.159, 330.778)" fill="#cbeeb0"/>
      <circle id="Ellipse_45" data-name="Ellipse 45" cx="127.819" cy="127.819" r="127.819" transform="matrix(0.174, -0.985, 0.985, 0.174, 52.545, 334.105)" fill="#c6eca8"/>
      <circle id="Ellipse_46" data-name="Ellipse 46" cx="127.819" cy="127.819" r="127.819" transform="translate(49.807 323.726) rotate(-76.987)" fill="#c0eaa0"/>
      <circle id="Ellipse_47" data-name="Ellipse 47" cx="127.819" cy="127.819" r="127.819" transform="translate(52.291 321.241) rotate(-76.987)" fill="#bbe898"/>
      <circle id="Ellipse_48" data-name="Ellipse 48" cx="127.82" cy="127.82" r="127.82" transform="translate(27.329 223) rotate(-45)" fill="#b6e790"/>
      <circle id="Ellipse_49" data-name="Ellipse 49" cx="127.82" cy="127.82" r="127.82" transform="translate(39.197 163.033) rotate(-26.458)" fill="#b1e588"/>
      <circle id="Ellipse_50" data-name="Ellipse 50" cx="127.82" cy="127.82" r="127.82" transform="translate(32.298 218.031) rotate(-45)" fill="#abe381"/>
      <circle id="Ellipse_51" data-name="Ellipse 51" cx="127.82" cy="127.82" r="127.82" transform="translate(34.783 215.547) rotate(-45)" fill="#a6e179"/>
      <circle id="Ellipse_52" data-name="Ellipse 52" cx="127.82" cy="127.82" r="127.82" transform="translate(37.267 213.062) rotate(-45)" fill="#a1e071"/>
      <circle id="Ellipse_53" data-name="Ellipse 53" cx="127.82" cy="127.82" r="127.82" transform="translate(39.752 210.578) rotate(-45)" fill="#9cde69"/>
      <circle id="Ellipse_54" data-name="Ellipse 54" cx="127.82" cy="127.82" r="127.82" transform="matrix(0.973, -0.23, 0.23, 0.973, 69.188, 113.133)" fill="#96dc61"/>
      <circle id="Ellipse_55" data-name="Ellipse 55" cx="127.82" cy="127.82" r="127.82" transform="translate(59.303 134.481) rotate(-21.828)" fill="#91da59"/>
      <circle id="Ellipse_56" data-name="Ellipse 56" cx="127.82" cy="127.82" r="127.82" transform="translate(61.787 131.996) rotate(-21.828)" fill="#8cd951"/>
      <circle id="Ellipse_57" data-name="Ellipse 57" cx="127.82" cy="127.82" r="127.82" transform="translate(64.272 129.512) rotate(-21.828)" fill="#87d749"/>
      <circle id="Ellipse_58" data-name="Ellipse 58" cx="127.82" cy="127.82" r="127.82" transform="matrix(0.235, -0.972, 0.972, 0.235, 78.708, 292.435)" fill="#82d541"/>
      <circle id="Ellipse_59" data-name="Ellipse 59" cx="127.819" cy="127.819" r="127.819" transform="translate(78.567 285.514) rotate(-74.803)" fill="#7cd339"/>
      <circle id="Ellipse_60" data-name="Ellipse 60" cx="127.819" cy="127.819" r="127.819" transform="translate(110.088 65.367)" fill="#77d232"/>
      <circle id="Ellipse_61" data-name="Ellipse 61" cx="127.819" cy="127.819" r="127.819" transform="translate(112.572 62.882)" fill="#72d02a"/>
      <circle id="Ellipse_62" data-name="Ellipse 62" cx="127.819" cy="127.819" r="127.819" transform="translate(115.057 60.398)" fill="#6dce22"/>
      <circle id="Ellipse_63" data-name="Ellipse 63" cx="127.819" cy="127.819" r="127.819" transform="translate(117.541 57.913)" fill="#67cc1a"/>
      <circle id="Ellipse_64" data-name="Ellipse 64" cx="127.819" cy="127.819" r="127.819" transform="translate(67.081 183.248) rotate(-45)" fill="#62cb12"/>
      <circle id="Ellipse_65" data-name="Ellipse 65" cx="127.819" cy="127.819" r="127.819" transform="translate(69.566 180.764) rotate(-45)" fill="#5dc90a"/>
    </g>
    <g id="Group_2285" data-name="Group 2285" transform="translate(89.808 4.867)">
      <circle id="Ellipse_66" data-name="Ellipse 66" cx="127.819" cy="127.819" r="127.819" transform="translate(0 180.764) rotate(-45)" fill="#5dc90a"/>
      <path id="Path_576" data-name="Path 576" d="M195.3,284.566c-71.963,0-130.511-58.545-130.511-130.508S123.333,23.549,195.3,23.549a130.508,130.508,0,0,1,0,261.017Zm0-255.637A125.128,125.128,0,1,0,320.424,154.057,125.271,125.271,0,0,0,195.3,28.929Z" transform="translate(-14.531 26.707)" fill="#fff"/>
    </g>
    <g id="Group_2286" data-name="Group 2286" transform="translate(127.626 68.903)">
      <path id="Path_577" data-name="Path 577" d="M190,288.346c-60.88,0-114.279-43.148-126.974-102.594a2.018,2.018,0,1,1,3.946-.842c12.3,57.6,64.038,99.4,123.027,99.4a125.651,125.651,0,0,0,38.981-6.157,2.019,2.019,0,0,1,1.251,3.839A129.77,129.77,0,0,1,190,288.346Zm85.58-32.877a2.017,2.017,0,0,1-1.35-3.516A126.052,126.052,0,0,0,315.8,158.508v-.516a2.017,2.017,0,0,1,2-2.031h.013a2.019,2.019,0,0,1,2.018,2v.543a130.091,130.091,0,0,1-42.9,96.442A2.024,2.024,0,0,1,275.578,255.469ZM62.179,160.66a1.91,1.91,0,0,1-2.017-1.886v-.266a130.11,130.11,0,0,1,42.7-96.256,2.016,2.016,0,1,1,2.706,2.989A126.076,126.076,0,0,0,64.2,158.508,2.138,2.138,0,0,1,62.179,160.66ZM314.94,133.445a2.018,2.018,0,0,1-1.969-1.59C300.578,74.4,248.86,32.707,190,32.707a125.66,125.66,0,0,0-39.231,6.238,2.018,2.018,0,0,1-1.256-3.836A129.722,129.722,0,0,1,190,28.672c60.748,0,114.126,43.037,126.917,102.33a2.017,2.017,0,0,1-1.547,2.4A1.927,1.927,0,0,1,314.94,133.445Z" transform="translate(-60.162 -28.672)"/>
    </g>
    <g id="Group_2288" data-name="Group 2288" transform="translate(184.784 122.811)">
      <g id="Group_2287" data-name="Group 2287">
        <path id="Path_578" data-name="Path 578" d="M137.593,177.686,83.136,123.23l19.592-19.592L137.593,138.5l88.063-88.063,19.592,19.592Z" transform="translate(-78.493 -45.794)" fill="#fff"/>
        <path id="Path_579" data-name="Path 579" d="M140.509,185.249l-59.1-59.1,24.237-24.237,34.862,34.865,88.063-88.063,24.237,24.237ZM90.7,126.146l49.811,49.814L243.52,72.949,228.572,58l-88.063,88.063L105.647,111.2Z" transform="translate(-81.41 -48.712)" fill="#fff"/>
      </g>
    </g>
  </g>
</svg>
